<!DOCTYPE svg PUBLIC "-//W3C//DTD SVG 1.1//EN" "http://www.w3.org/Graphics/SVG/1.1/DTD/svg11.dtd">
<!-- Uploaded to: SVG Repo, www.svgrepo.com, Transformed by: SVG Repo Mixer Tools -->
<svg width="800px" height="800px" viewBox="-9 0 64 64" version="1.1" xmlns="http://www.w3.org/2000/svg" xmlns:xlink="http://www.w3.org/1999/xlink" xmlns:sketch="http://www.bohemiancoding.com/sketch/ns" fill="#ff0000" stroke="#ff0000">
<g id="SVGRepo_bgCarrier" stroke-width="0"/>
<g id="SVGRepo_tracerCarrier" stroke-linecap="round" stroke-linejoin="round"/>
<g id="SVGRepo_iconCarrier"> <title>Game-boy</title> <desc>Created with Sketch.</desc> <defs> </defs> <g id="Page-1" stroke="none" stroke-width="1" fill="none" fill-rule="evenodd" sketch:type="MSPage"> <g id="Game-boy" sketch:type="MSLayerGroup" transform="translate(1.000000, 1.000000)" stroke="#ff0000" stroke-width="2"> <path d="M44,60 C44,61.1 43.1,62 42,62 L2,62 C0.9,62 0,61.1 0,60 L0,2 C0,0.9 0.9,0 2,0 L42,0 C43.1,0 44,0.9 44,2 L44,60 L44,60 Z" id="Shape" sketch:type="MSShapeGroup"> </path> <path d="M38,31 C38,32.1 37.1,33 36,33 L8,33 C6.9,33 6,32.1 6,31 L6,9 C6,7.9 6.9,7 8,7 L36,7 C37.1,7 38,7.9 38,9 L38,31 L38,31 Z" id="Shape" sketch:type="MSShapeGroup"> </path> <path d="M12,42 L12,52" id="Shape" sketch:type="MSShapeGroup"> </path> <path d="M7,47 L17,47" id="Shape" sketch:type="MSShapeGroup"> </path> <circle id="Oval" sketch:type="MSShapeGroup" cx="35" cy="45" r="3"> </circle> <circle id="Oval" sketch:type="MSShapeGroup" cx="28" cy="53" r="3"> </circle> </g> </g> </g>
</svg>